<svg id="Capa_1" enable-background="new 0 0 512 512" height="512" viewBox="0 0 512 512" width="512" xmlns="http://www.w3.org/2000/svg"><g><path d="m152.66 340.96h163.27c.013 0 .026-.002.039-.002h63.082c19.045 0 34.54-15.494 34.54-34.54v-110.287c0-19.046-15.494-34.54-34.54-34.54-34.063 0-279.521 0-289.51 0-19.046 0-34.54 15.494-34.54 34.54v110.287c0 19.046 15.494 34.54 34.54 34.54h63.082c.012 0 .024.002.037.002zm7.5-15.002v-89.658h148.27v89.658zm163.273-139.006c22.616 13.282 36.709 37.465 36.709 64.322s-14.093 51.039-36.709 64.322zm-15.003-10.361v44.709h-148.27v-44.709zm-163.273 139.006c-22.616-13.283-36.709-37.466-36.709-64.322 0-26.857 14.093-51.04 36.709-64.322zm253.433-119.466v110.287c0 10.774-8.766 19.54-19.54 19.54h-43.918c24.76-16.379 40.01-44.08 40.01-74.684s-15.249-58.304-40.008-74.684h43.917c10.773.001 19.539 8.766 19.539 19.541zm-328.59 110.287v-110.287c0-10.774 8.766-19.54 19.54-19.54h43.917c-24.76 16.379-40.009 44.08-40.009 74.684s15.25 58.304 40.01 74.684h-43.918c-10.774-.001-19.54-8.767-19.54-19.541z"/><path d="m198.599 272.056h72.799c4.142 0 7.5-3.357 7.5-7.5s-3.358-7.5-7.5-7.5h-72.799c-4.142 0-7.5 3.357-7.5 7.5s3.358 7.5 7.5 7.5z"/><path d="m271.397 292.811h-72.799c-4.142 0-7.5 3.357-7.5 7.5s3.358 7.5 7.5 7.5h72.799c4.142 0 7.5-3.357 7.5-7.5s-3.358-7.5-7.5-7.5z"/><circle cx="290.282" cy="111.842" r="11.73"/><path d="m210.16 139.948h49.675c4.142 0 7.5-3.357 7.5-7.5s-3.358-7.5-7.5-7.5h-49.675c-4.142 0-7.5 3.357-7.5 7.5s3.359 7.5 7.5 7.5z"/><circle cx="179.714" cy="111.842" r="11.73"/><path d="m451.704 8.348h-43.411c-.02 0-.039.003-.058.003h-347.935c-33.249 0-60.3 27.045-60.3 60.29v47.439 217.88c0 33.249 27.051 60.3 60.3 60.3h95.104v46.086h-8.664c-17.453 0-31.653 14.199-31.653 31.653s14.2 31.653 31.653 31.653h40.317c17.454 0 31.653-14.199 31.653-31.653v-77.739h49.105v46.086h-8.664c-17.454 0-31.653 14.199-31.653 31.653s14.199 31.653 31.653 31.653h40.317c17.454 0 31.653-14.199 31.653-31.653v-77.739c6.625 0 113.509-.001 120.582-.001 33.247 0 60.296-27.049 60.296-60.296v-265.318c.001-33.249-27.048-60.297-60.295-60.297zm-436.704 60.293c0-24.973 20.321-45.29 45.3-45.29h347.99c25.008 0 45.299 20.343 45.299 45.294v39.936h-39.999v-37.73c0-4.143-3.357-7.5-7.5-7.5h-343.59c-4.142 0-7.5 3.357-7.5 7.5v37.729h-40zm0 265.319v-210.38h47.5c4.142 0 7.5-3.357 7.5-7.5v-37.729h328.59v37.729c0 4.143 3.358 7.5 7.5 7.5h47.499v210.383c0 17.74-10.305 33.449-25.779 40.869-5.914 2.835-12.532 4.427-19.517 4.427-.006 0-.013.001-.02.001-75.635-.001-269.036 0-347.974 0-24.978 0-45.299-20.322-45.299-45.3zm172.057 154.692h-40.317c-9.183 0-16.653-7.471-16.653-16.653s7.471-16.653 16.653-16.653h16.164c4.143 0 7.5-3.357 7.5-7.5v-28.811h33.307v52.964c-.001 9.183-7.472 16.653-16.654 16.653zm112.412 0h-40.317c-9.183 0-16.653-7.471-16.653-16.653s7.471-16.653 16.653-16.653h16.164c4.142 0 7.5-3.357 7.5-7.5v-28.811h33.307v52.964c-.001 9.183-7.472 16.653-16.654 16.653zm197.531-154.689c0 24.977-20.32 45.296-45.296 45.296h-3.654c12.533-10.991 20.54-27.34 20.54-45.299 0-9.495 0-252.673 0-265.319 0-17.411-7.591-33.938-20.54-45.293h3.654c24.976 0 45.296 20.32 45.296 45.297z"/></g></svg>